<svg width="41" height="14" viewBox="0 0 41 14" fill="none" xmlns="http://www.w3.org/2000/svg">
<path d="M34.0369 0.644642V0.637939H0.0123291V12.9983H34.0369V13.005H40.2305L34.0369 6.82483L40.2305 0.644642H34.0369ZM5.83055 10.7662C4.69104 10.7662 3.78613 10.4243 3.11583 9.72723C2.44553 9.03682 2.11037 8.08499 2.11037 6.86504C2.11037 6.08749 2.22433 5.4373 2.45893 4.90776C2.63321 4.51899 2.86782 4.17043 3.16945 3.86209C3.47109 3.55375 3.79954 3.32585 4.1615 3.17168C4.63741 2.97059 5.18706 2.87004 5.81044 2.87004C6.93655 2.87004 7.84146 3.2186 8.51846 3.92242C9.19547 4.61953 9.53062 5.59147 9.53062 6.83153C9.53062 8.06489 9.19547 9.03012 8.52516 9.72723C7.85486 10.4176 6.95666 10.7662 5.83055 10.7662ZM14.149 10.7662C13.0095 10.7662 12.1046 10.4243 11.4343 9.72723C10.7573 9.03682 10.4221 8.08499 10.4221 6.86504C10.4221 6.08749 10.5428 5.4373 10.7774 4.90776C10.945 4.51899 11.1863 4.17043 11.4879 3.86209C11.7895 3.55375 12.118 3.32585 12.4732 3.17168C12.9559 2.97059 13.5055 2.87004 14.1289 2.87004C15.255 2.87004 16.1532 3.2186 16.8302 3.92242C17.5072 4.61953 17.8491 5.59147 17.8491 6.83153C17.8491 8.06489 17.5139 9.03012 16.8436 9.72723C16.1666 10.4176 15.2684 10.7662 14.149 10.7662ZM23.4863 10.4981C23.0372 10.6791 22.4876 10.7729 21.824 10.7729C20.852 10.7729 20.108 10.5517 19.5919 10.1026C19.0757 9.6602 18.7607 9.01001 18.6601 8.15202C18.8143 8.13862 20.0141 8.02467 20.1683 8.01126C20.2555 8.51399 20.4431 8.88265 20.718 9.11726C20.9928 9.35186 21.3682 9.47252 21.8374 9.47252C22.3334 9.47252 22.7088 9.36527 22.9635 9.15748C23.2115 8.94968 23.3388 8.70167 23.3388 8.42015C23.3388 8.23916 23.2852 8.08499 23.178 7.95764C23.0774 7.83028 22.8897 7.72303 22.6216 7.62919C22.4406 7.56886 22.0318 7.45491 21.3883 7.29404C20.5571 7.09295 19.9806 6.83823 19.6455 6.5366C19.1763 6.12101 18.9417 5.60488 18.9417 5.00161C18.9417 4.61283 19.0489 4.25087 19.2701 3.90901C19.4913 3.57386 19.8131 3.31244 20.2286 3.13817C20.6442 2.96389 21.147 2.87004 21.7301 2.87004C22.6954 2.87004 23.4126 3.08454 23.9019 3.50013C24.3845 3.92242 24.6392 4.48547 24.666 5.18259C24.5119 5.18929 23.2718 5.24962 23.1176 5.25632C23.0573 4.86084 22.9098 4.57931 22.6954 4.40504C22.4809 4.23746 22.1524 4.15032 21.7167 4.15032C21.2676 4.15032 20.9123 4.24416 20.6643 4.42515C20.4968 4.5458 20.4163 4.69997 20.4163 4.90106C20.4163 5.08204 20.4901 5.23621 20.6442 5.36357C20.8386 5.52444 21.3145 5.69872 22.0653 5.873C22.816 6.04728 23.3724 6.23496 23.7343 6.42265C24.0963 6.61033 24.3778 6.87175 24.5789 7.2002C24.78 7.52864 24.8872 7.93083 24.8872 8.41344C24.8872 8.84914 24.7599 9.26473 24.5186 9.6468C24.2773 10.0289 23.9287 10.3104 23.4863 10.4981ZM29.452 4.29779V10.6388H27.9103V4.29779H25.638V3.00411H31.7176V4.29779H29.452Z" fill="#224D12"/>
</svg>
