<svg width="30" height="10" viewBox="0 0 30 10" fill="none" xmlns="http://www.w3.org/2000/svg">
<path d="M0.890625 9V0.410156H2.60156L4.63477 6.49219C4.82227 7.05859 4.95898 7.48242 5.04492 7.76367C5.14258 7.45117 5.29492 6.99219 5.50195 6.38672L7.55859 0.410156H9.08789V9H7.99219V1.81055L5.49609 9H4.4707L1.98633 1.6875V9H0.890625ZM14.8477 8.23242C14.457 8.56445 14.0801 8.79883 13.7168 8.93555C13.3574 9.07227 12.9707 9.14062 12.5566 9.14062C11.873 9.14062 11.3477 8.97461 10.9805 8.64258C10.6133 8.30664 10.4297 7.87891 10.4297 7.35938C10.4297 7.05469 10.498 6.77734 10.6348 6.52734C10.7754 6.27344 10.957 6.07031 11.1797 5.91797C11.4062 5.76562 11.6602 5.65039 11.9414 5.57227C12.1484 5.51758 12.4609 5.46484 12.8789 5.41406C13.7305 5.3125 14.3574 5.19141 14.7598 5.05078C14.7637 4.90625 14.7656 4.81445 14.7656 4.77539C14.7656 4.3457 14.666 4.04297 14.4668 3.86719C14.1973 3.62891 13.7969 3.50977 13.2656 3.50977C12.7695 3.50977 12.4023 3.59766 12.1641 3.77344C11.9297 3.94531 11.7559 4.25195 11.6426 4.69336L10.6113 4.55273C10.7051 4.11133 10.8594 3.75586 11.0742 3.48633C11.2891 3.21289 11.5996 3.00391 12.0059 2.85938C12.4121 2.71094 12.8828 2.63672 13.418 2.63672C13.9492 2.63672 14.3809 2.69922 14.7129 2.82422C15.0449 2.94922 15.2891 3.10742 15.4453 3.29883C15.6016 3.48633 15.7109 3.72461 15.7734 4.01367C15.8086 4.19336 15.8262 4.51758 15.8262 4.98633V6.39258C15.8262 7.37305 15.8477 7.99414 15.8906 8.25586C15.9375 8.51367 16.0273 8.76172 16.1602 9H15.0586C14.9492 8.78125 14.8789 8.52539 14.8477 8.23242ZM14.7598 5.87695C14.377 6.0332 13.8027 6.16602 13.0371 6.27539C12.6035 6.33789 12.2969 6.4082 12.1172 6.48633C11.9375 6.56445 11.7988 6.67969 11.7012 6.83203C11.6035 6.98047 11.5547 7.14648 11.5547 7.33008C11.5547 7.61133 11.6602 7.8457 11.8711 8.0332C12.0859 8.2207 12.3984 8.31445 12.8086 8.31445C13.2148 8.31445 13.5762 8.22656 13.8926 8.05078C14.209 7.87109 14.4414 7.62695 14.5898 7.31836C14.7031 7.08008 14.7598 6.72852 14.7598 6.26367V5.87695ZM21.5273 8.23242C21.1367 8.56445 20.7598 8.79883 20.3965 8.93555C20.0371 9.07227 19.6504 9.14062 19.2363 9.14062C18.5527 9.14062 18.0273 8.97461 17.6602 8.64258C17.293 8.30664 17.1094 7.87891 17.1094 7.35938C17.1094 7.05469 17.1777 6.77734 17.3145 6.52734C17.4551 6.27344 17.6367 6.07031 17.8594 5.91797C18.0859 5.76562 18.3398 5.65039 18.6211 5.57227C18.8281 5.51758 19.1406 5.46484 19.5586 5.41406C20.4102 5.3125 21.0371 5.19141 21.4395 5.05078C21.4434 4.90625 21.4453 4.81445 21.4453 4.77539C21.4453 4.3457 21.3457 4.04297 21.1465 3.86719C20.877 3.62891 20.4766 3.50977 19.9453 3.50977C19.4492 3.50977 19.082 3.59766 18.8438 3.77344C18.6094 3.94531 18.4355 4.25195 18.3223 4.69336L17.291 4.55273C17.3848 4.11133 17.5391 3.75586 17.7539 3.48633C17.9688 3.21289 18.2793 3.00391 18.6855 2.85938C19.0918 2.71094 19.5625 2.63672 20.0977 2.63672C20.6289 2.63672 21.0605 2.69922 21.3926 2.82422C21.7246 2.94922 21.9688 3.10742 22.125 3.29883C22.2812 3.48633 22.3906 3.72461 22.4531 4.01367C22.4883 4.19336 22.5059 4.51758 22.5059 4.98633V6.39258C22.5059 7.37305 22.5273 7.99414 22.5703 8.25586C22.6172 8.51367 22.707 8.76172 22.8398 9H21.7383C21.6289 8.78125 21.5586 8.52539 21.5273 8.23242ZM21.4395 5.87695C21.0566 6.0332 20.4824 6.16602 19.7168 6.27539C19.2832 6.33789 18.9766 6.4082 18.7969 6.48633C18.6172 6.56445 18.4785 6.67969 18.3809 6.83203C18.2832 6.98047 18.2344 7.14648 18.2344 7.33008C18.2344 7.61133 18.3398 7.8457 18.5508 8.0332C18.7656 8.2207 19.0781 8.31445 19.4883 8.31445C19.8945 8.31445 20.2559 8.22656 20.5723 8.05078C20.8887 7.87109 21.1211 7.62695 21.2695 7.31836C21.3828 7.08008 21.4395 6.72852 21.4395 6.26367V5.87695ZM24.1523 9V0.410156H25.207V5.30859L27.7031 2.77734H29.0684L26.6895 5.08594L29.3086 9H28.0078L25.9512 5.81836L25.207 6.5332V9H24.1523Z" fill="#444444"/>
</svg>
