<svg width="38" height="12" viewBox="0 0 38 12" fill="none" xmlns="http://www.w3.org/2000/svg">
<path d="M6.5625 0.410156H7.69922V5.37305C7.69922 6.23633 7.60156 6.92188 7.40625 7.42969C7.21094 7.9375 6.85742 8.35156 6.3457 8.67188C5.83789 8.98828 5.16992 9.14648 4.3418 9.14648C3.53711 9.14648 2.87891 9.00781 2.36719 8.73047C1.85547 8.45312 1.49023 8.05273 1.27148 7.5293C1.05273 7.00195 0.943359 6.2832 0.943359 5.37305V0.410156H2.08008V5.36719C2.08008 6.11328 2.14844 6.66406 2.28516 7.01953C2.42578 7.37109 2.66406 7.64258 3 7.83398C3.33984 8.02539 3.75391 8.12109 4.24219 8.12109C5.07812 8.12109 5.67383 7.93164 6.0293 7.55273C6.38477 7.17383 6.5625 6.44531 6.5625 5.36719V0.410156ZM9.46289 11.3848V2.77734H10.4238V3.58594C10.6504 3.26953 10.9062 3.0332 11.1914 2.87695C11.4766 2.7168 11.8223 2.63672 12.2285 2.63672C12.7598 2.63672 13.2285 2.77344 13.6348 3.04688C14.041 3.32031 14.3477 3.70703 14.5547 4.20703C14.7617 4.70312 14.8652 5.24805 14.8652 5.8418C14.8652 6.47852 14.75 7.05273 14.5195 7.56445C14.293 8.07227 13.9609 8.46289 13.5234 8.73633C13.0898 9.00586 12.6328 9.14062 12.1523 9.14062C11.8008 9.14062 11.4844 9.06641 11.2031 8.91797C10.9258 8.76953 10.6973 8.58203 10.5176 8.35547V11.3848H9.46289ZM10.418 5.92383C10.418 6.72461 10.5801 7.31641 10.9043 7.69922C11.2285 8.08203 11.6211 8.27344 12.082 8.27344C12.5508 8.27344 12.9512 8.07617 13.2832 7.68164C13.6191 7.2832 13.7871 6.66797 13.7871 5.83594C13.7871 5.04297 13.623 4.44922 13.2949 4.05469C12.9707 3.66016 12.582 3.46289 12.1289 3.46289C11.6797 3.46289 11.2812 3.67383 10.9336 4.0957C10.5898 4.51367 10.418 5.12305 10.418 5.92383ZM16.1191 9V0.410156H17.1738V9H16.1191ZM18.4219 5.88867C18.4219 4.73633 18.7422 3.88281 19.3828 3.32812C19.918 2.86719 20.5703 2.63672 21.3398 2.63672C22.1953 2.63672 22.8945 2.91797 23.4375 3.48047C23.9805 4.03906 24.252 4.8125 24.252 5.80078C24.252 6.60156 24.1309 7.23242 23.8887 7.69336C23.6504 8.15039 23.3008 8.50586 22.8398 8.75977C22.3828 9.01367 21.8828 9.14062 21.3398 9.14062C20.4688 9.14062 19.7637 8.86133 19.2246 8.30273C18.6895 7.74414 18.4219 6.93945 18.4219 5.88867ZM19.5059 5.88867C19.5059 6.68555 19.6797 7.2832 20.0273 7.68164C20.375 8.07617 20.8125 8.27344 21.3398 8.27344C21.8633 8.27344 22.2988 8.07422 22.6465 7.67578C22.9941 7.27734 23.168 6.66992 23.168 5.85352C23.168 5.08398 22.9922 4.50195 22.6406 4.10742C22.293 3.70898 21.8594 3.50977 21.3398 3.50977C20.8125 3.50977 20.375 3.70703 20.0273 4.10156C19.6797 4.49609 19.5059 5.0918 19.5059 5.88867ZM29.5547 8.23242C29.1641 8.56445 28.7871 8.79883 28.4238 8.93555C28.0645 9.07227 27.6777 9.14062 27.2637 9.14062C26.5801 9.14062 26.0547 8.97461 25.6875 8.64258C25.3203 8.30664 25.1367 7.87891 25.1367 7.35938C25.1367 7.05469 25.2051 6.77734 25.3418 6.52734C25.4824 6.27344 25.6641 6.07031 25.8867 5.91797C26.1133 5.76562 26.3672 5.65039 26.6484 5.57227C26.8555 5.51758 27.168 5.46484 27.5859 5.41406C28.4375 5.3125 29.0645 5.19141 29.4668 5.05078C29.4707 4.90625 29.4727 4.81445 29.4727 4.77539C29.4727 4.3457 29.373 4.04297 29.1738 3.86719C28.9043 3.62891 28.5039 3.50977 27.9727 3.50977C27.4766 3.50977 27.1094 3.59766 26.8711 3.77344C26.6367 3.94531 26.4629 4.25195 26.3496 4.69336L25.3184 4.55273C25.4121 4.11133 25.5664 3.75586 25.7812 3.48633C25.9961 3.21289 26.3066 3.00391 26.7129 2.85938C27.1191 2.71094 27.5898 2.63672 28.125 2.63672C28.6562 2.63672 29.0879 2.69922 29.4199 2.82422C29.752 2.94922 29.9961 3.10742 30.1523 3.29883C30.3086 3.48633 30.418 3.72461 30.4805 4.01367C30.5156 4.19336 30.5332 4.51758 30.5332 4.98633V6.39258C30.5332 7.37305 30.5547 7.99414 30.5977 8.25586C30.6445 8.51367 30.7344 8.76172 30.8672 9H29.7656C29.6562 8.78125 29.5859 8.52539 29.5547 8.23242ZM29.4668 5.87695C29.084 6.0332 28.5098 6.16602 27.7441 6.27539C27.3105 6.33789 27.0039 6.4082 26.8242 6.48633C26.6445 6.56445 26.5059 6.67969 26.4082 6.83203C26.3105 6.98047 26.2617 7.14648 26.2617 7.33008C26.2617 7.61133 26.3672 7.8457 26.5781 8.0332C26.793 8.2207 27.1055 8.31445 27.5156 8.31445C27.9219 8.31445 28.2832 8.22656 28.5996 8.05078C28.916 7.87109 29.1484 7.62695 29.2969 7.31836C29.4102 7.08008 29.4668 6.72852 29.4668 6.26367V5.87695ZM36.2109 9V8.21484C35.8164 8.83203 35.2363 9.14062 34.4707 9.14062C33.9746 9.14062 33.5176 9.00391 33.0996 8.73047C32.6855 8.45703 32.3633 8.07617 32.1328 7.58789C31.9062 7.0957 31.793 6.53125 31.793 5.89453C31.793 5.27344 31.8965 4.71094 32.1035 4.20703C32.3105 3.69922 32.6211 3.31055 33.0352 3.04102C33.4492 2.77148 33.9121 2.63672 34.4238 2.63672C34.7988 2.63672 35.1328 2.7168 35.4258 2.87695C35.7188 3.0332 35.957 3.23828 36.1406 3.49219V0.410156H37.1895V9H36.2109ZM32.877 5.89453C32.877 6.69141 33.0449 7.28711 33.3809 7.68164C33.7168 8.07617 34.1133 8.27344 34.5703 8.27344C35.0312 8.27344 35.4219 8.08594 35.7422 7.71094C36.0664 7.33203 36.2285 6.75586 36.2285 5.98242C36.2285 5.13086 36.0645 4.50586 35.7363 4.10742C35.4082 3.70898 35.0039 3.50977 34.5234 3.50977C34.0547 3.50977 33.6621 3.70117 33.3457 4.08398C33.0332 4.4668 32.877 5.07031 32.877 5.89453Z" fill="#444444"/>
</svg>
