<svg width="68" height="47" viewBox="0 0 68 47" fill="none" xmlns="http://www.w3.org/2000/svg">
<path d="M60.8712 0H6.29702C2.81923 0 0 2.62335 0 5.85952V41.0166C0 44.2528 2.81923 46.8761 6.29702 46.8761H60.8712C64.3489 46.8761 67.1682 44.2528 67.1682 41.0166V5.85952C67.1682 2.62335 64.3489 0 60.8712 0ZM60.084 41.0166H7.08414C6.87538 41.0166 6.67517 40.9394 6.52756 40.8021C6.37994 40.6647 6.29702 40.4784 6.29702 40.2842V6.59195C6.29702 6.3977 6.37994 6.2114 6.52756 6.07404C6.67517 5.93668 6.87538 5.85952 7.08414 5.85952H60.084C60.2928 5.85952 60.493 5.93668 60.6406 6.07404C60.7882 6.2114 60.8712 6.3977 60.8712 6.59195V40.2842C60.8712 40.4784 60.7882 40.6647 60.6406 40.8021C60.493 40.9394 60.2928 41.0166 60.084 41.0166V41.0166ZM16.792 10.7424C13.894 10.7424 11.5445 12.9287 11.5445 15.6254C11.5445 18.3221 13.894 20.5083 16.792 20.5083C19.6901 20.5083 22.0396 18.3221 22.0396 15.6254C22.0396 12.9287 19.6901 10.7424 16.792 10.7424ZM12.594 35.1571H54.5741V25.3912L43.0932 14.708C42.4785 14.136 41.4817 14.136 40.8668 14.708L25.1881 29.2976L20.0042 24.4739C19.3894 23.9018 18.3927 23.9018 17.7778 24.4739L12.594 29.2976V35.1571Z" fill="#224D12"/>
</svg>
