<svg width="54" height="47" viewBox="0 0 54 47" fill="none" xmlns="http://www.w3.org/2000/svg">
<path d="M53.1682 11.6305V41.5376C53.1682 44.2895 50.9355 46.5221 48.1836 46.5221H4.98452C2.23265 46.5221 0 44.2895 0 41.5376V11.6305C0 8.87867 2.23265 6.64602 4.98452 6.64602H14.1228L15.4001 3.22955C16.127 1.28767 17.9858 0 20.0627 0H33.0951C35.172 0 37.0308 1.28767 37.7577 3.22955L39.0454 6.64602H48.1836C50.9355 6.64602 53.1682 8.87867 53.1682 11.6305ZM39.0454 26.5841C39.0454 19.7096 33.4586 14.1228 26.5841 14.1228C19.7096 14.1228 14.1228 19.7096 14.1228 26.5841C14.1228 33.4586 19.7096 39.0454 26.5841 39.0454C33.4586 39.0454 39.0454 33.4586 39.0454 26.5841ZM35.7224 26.5841C35.7224 31.6205 31.6205 35.7224 26.5841 35.7224C21.5476 35.7224 17.4458 31.6205 17.4458 26.5841C17.4458 21.5476 21.5476 17.4458 26.5841 17.4458C31.6205 17.4458 35.7224 21.5476 35.7224 26.5841Z" fill="#224D12"/>
</svg>
