<svg width="34" height="32" viewBox="0 0 34 32" fill="none" xmlns="http://www.w3.org/2000/svg">
<path d="M34 16C34 24.8366 26.3889 32 17 32C7.61113 32 0 24.8366 0 16C0 7.16342 7.61113 0 17 0C26.3889 0 34 7.16342 34 16ZM15.0336 24.4719L27.6465 12.6009C28.0748 12.1978 28.0748 11.5442 27.6465 11.1411L26.0955 9.68129C25.6672 9.27813 24.9727 9.27813 24.5444 9.68129L14.2581 19.3625L9.45563 14.8425C9.02734 14.4394 8.33288 14.4394 7.90452 14.8425L6.35348 16.3023C5.92519 16.7054 5.92519 17.359 6.35348 17.7621L13.4825 24.4718C13.9109 24.875 14.6053 24.875 15.0336 24.4719V24.4719Z" fill="#224D12"/>
</svg>
