<svg width="205" height="20" viewBox="0 0 205 20" fill="none" xmlns="http://www.w3.org/2000/svg">
<path fill-rule="evenodd" clip-rule="evenodd" d="M83.5082 3.40875L80.9621 9.9678L78.416 16.5271H79.8161H81.2162H88.6628H90.0986H91.5343L88.917 9.9678L86.2996 3.40875H83.5082Z" fill="#F26F21"/>
<path fill-rule="evenodd" clip-rule="evenodd" d="M3.15802 3.40875H8.42986C9.47299 3.40875 10.2512 3.45201 10.7639 3.5384C11.2768 3.62506 11.7355 3.80556 12.1403 4.07991C12.5453 4.3544 12.8827 4.71975 13.1524 5.17609C13.4222 5.63244 13.5572 6.14385 13.5572 6.71072C13.5572 7.32519 13.391 7.88908 13.0579 8.40198C12.7251 8.91515 12.2739 9.29989 11.704 9.55634C12.5079 9.78892 13.1254 10.1857 13.5572 10.7464C13.989 11.3071 14.2051 11.9664 14.2051 12.7239C14.2051 13.3206 14.0654 13.9008 13.7866 14.4645C13.5077 15.0282 13.1268 15.4785 12.6441 15.8155C12.1616 16.1527 11.5659 16.36 10.8585 16.4375C10.4146 16.4853 9.34388 16.5152 7.647 16.5271H3.15802V3.40875Z" fill="#224D12"/>
<path fill-rule="evenodd" clip-rule="evenodd" d="M5.9198 5.4801V8.24186H7.55908C8.53349 8.24186 9.13895 8.22853 9.3756 8.20124C9.80345 8.15247 10.1404 8.00974 10.3854 7.77342C10.6302 7.53722 10.7529 7.22645 10.7529 6.84061C10.7529 6.47144 10.6471 6.17128 10.4361 5.9404C10.2246 5.70976 9.91076 5.56986 9.4938 5.52085C9.24588 5.49368 8.53349 5.4801 7.35637 5.4801H5.9198Z" fill="#224D12"/>
<path fill-rule="evenodd" clip-rule="evenodd" d="M5.9198 10.3132V13.7654H8.33748C9.27839 13.7654 9.87589 13.7388 10.1286 13.686C10.5168 13.6155 10.8331 13.4439 11.077 13.1709C11.3211 12.8979 11.4433 12.5324 11.4433 12.0742C11.4433 11.6871 11.3493 11.3583 11.1609 11.0883C10.9725 10.8181 10.7007 10.6213 10.3447 10.498C9.98876 10.3747 9.21661 10.3132 8.0287 10.3132H5.9198Z" fill="#224D12"/>
<path fill-rule="evenodd" clip-rule="evenodd" d="M16.2764 3.40875H18.8989V10.3948C18.8989 11.5035 18.931 12.2218 18.9961 12.5503C19.1082 13.0783 19.3758 13.5022 19.7979 13.8216C20.2202 14.1415 20.7978 14.3011 21.53 14.3011C22.2741 14.3011 22.8355 14.1501 23.2133 13.8482C23.5911 13.5461 23.8189 13.175 23.8955 12.7351C23.9722 12.2952 24.0107 11.565 24.0107 10.5444V3.40875H26.633V10.1834C26.633 11.7319 26.5622 12.8262 26.4204 13.4651C26.2788 14.1047 26.0172 14.6443 25.6364 15.0842C25.2554 15.5242 24.746 15.8749 24.1081 16.1357C23.4703 16.3966 22.6374 16.5271 21.6097 16.5271C20.3694 16.5271 19.4288 16.3848 18.788 16.1005C18.147 15.816 17.6408 15.4465 17.2686 14.9919C16.8964 14.5374 16.6515 14.0608 16.5334 13.5621C16.3619 12.8231 16.2764 11.7319 16.2764 10.2892V3.40875Z" fill="#224D12"/>
<path fill-rule="evenodd" clip-rule="evenodd" d="M29.3947 3.40875H32.0172V10.3948C32.0172 11.5035 32.0493 12.2218 32.1144 12.5503C32.2266 13.0783 32.4941 13.5022 32.9163 13.8216C33.3386 14.1415 33.9162 14.3011 34.6483 14.3011C35.3925 14.3011 35.9538 14.1501 36.3317 13.8482C36.7095 13.5461 36.9372 13.175 37.0139 12.7351C37.0905 12.2952 37.1291 11.565 37.1291 10.5444V3.40875H39.7513V10.1834C39.7513 11.7319 39.6806 12.8262 39.5388 13.4651C39.3971 14.1047 39.1356 14.6443 38.7548 15.0842C38.3737 15.5242 37.8643 15.8749 37.2264 16.1357C36.5886 16.3966 35.7558 16.5271 34.7281 16.5271C33.4877 16.5271 32.5472 16.3848 31.9063 16.1005C31.2653 15.816 30.7591 15.4465 30.387 14.9919C30.0148 14.5374 29.7699 14.0608 29.6517 13.5621C29.4802 12.8231 29.3947 11.7319 29.3947 10.2892V3.40875Z" fill="#224D12"/>
<path fill-rule="evenodd" clip-rule="evenodd" d="M42.5131 16.5271V3.40875H48.0612C49.4563 3.40875 50.4702 3.5266 51.1026 3.76217C51.7348 3.99814 52.2412 4.41706 52.621 5.01947C53.0008 5.62202 53.191 6.31109 53.191 7.08655C53.191 8.07086 52.9028 8.88388 52.327 9.52508C51.7513 10.1663 50.8902 10.5705 49.7446 10.7376C50.3145 11.0718 50.785 11.4386 51.1559 11.8382C51.5269 12.2378 52.0273 12.9476 52.6565 13.9679L54.2506 16.5271H51.098L49.1924 13.6725C48.5154 12.6525 48.0525 12.0096 47.8031 11.7442C47.5536 11.4789 47.2896 11.2968 47.0105 11.1983C46.7313 11.1 46.289 11.0508 45.6835 11.0508H45.1493V16.5271H42.5131Z" fill="#224D12"/>
<path fill-rule="evenodd" clip-rule="evenodd" d="M45.2748 8.9323H47.2978C48.6094 8.9323 49.428 8.87675 49.7546 8.76535C50.0812 8.65396 50.3365 8.46212 50.5213 8.18996C50.7061 7.91767 50.7984 7.57744 50.7984 7.169C50.7984 6.71119 50.677 6.34185 50.4336 6.05999C50.1901 5.7787 49.8471 5.60078 49.4037 5.52638C49.1819 5.49557 48.517 5.4801 47.4084 5.4801H45.2748V8.9323Z" fill="#224D12"/>
<path fill-rule="evenodd" clip-rule="evenodd" d="M58.808 16.5271V5.62799H54.941V3.40875H65.2976V5.62799H61.4395V16.5271H58.808Z" fill="#224D12"/>
<mask id="mask0_181_495" style="mask-type:alpha" maskUnits="userSpaceOnUse" x="66" y="2" width="13" height="15">
<path fill-rule="evenodd" clip-rule="evenodd" d="M66.7328 2.8407H78.1401V16.3829H66.7328V2.8407Z" fill="white"/>
</mask>
<g mask="url(#mask0_181_495)">
<path fill-rule="evenodd" clip-rule="evenodd" d="M75.5764 11.3448L78.1401 12.1578C77.747 13.587 77.0938 14.6485 76.1794 15.3421C75.2652 16.0362 74.1055 16.3829 72.7 16.3829C70.9612 16.3829 69.532 15.789 68.4124 14.6007C67.2925 13.4126 66.7328 11.7883 66.7328 9.72798C66.7328 7.54822 67.2956 5.85556 68.4212 4.64973C69.5467 3.44362 71.0266 2.84064 72.8608 2.84064C74.4629 2.84064 75.7639 3.3142 76.7644 4.26091C77.3599 4.82098 77.8066 5.62487 78.1044 6.67285L75.487 7.29831C75.3322 6.61937 75.0093 6.08327 74.5179 5.69026C74.0266 5.29739 73.4293 5.10068 72.7268 5.10068C71.7563 5.10068 70.9685 5.44915 70.3642 6.14595C69.7597 6.84275 69.4574 7.97128 69.4574 9.53127C69.4574 11.1872 69.7554 12.3663 70.3506 13.0688C70.9462 13.7715 71.7207 14.1228 72.6733 14.1228C73.3758 14.1228 73.9804 13.8996 74.4865 13.453C74.9927 13.0064 75.3562 12.3036 75.5764 11.3448Z" fill="#224D12"/>
</g>
<path fill-rule="evenodd" clip-rule="evenodd" d="M93.6057 16.5271V3.40875H97.4938L99.8282 12.3572L102.137 3.40875H106.034V16.5271H103.62V6.2007L101.066 16.5271H98.5644L96.0192 6.2007V16.5271H93.6057Z" fill="#224D12"/>
<path fill-rule="evenodd" clip-rule="evenodd" d="M108.795 16.5271V3.40875H113.176C114.836 3.40875 115.918 3.47439 116.422 3.60567C117.197 3.80245 117.846 4.23059 118.368 4.88969C118.891 5.54892 119.152 6.40073 119.152 7.44458C119.152 8.24973 119.001 8.92687 118.7 9.47585C118.399 10.0247 118.016 10.4555 117.552 10.7687C117.088 11.082 116.616 11.2895 116.136 11.3908C115.485 11.5161 114.541 11.5786 113.305 11.5786H111.525V16.5271H108.795Z" fill="#224D12"/>
<path fill-rule="evenodd" clip-rule="evenodd" d="M111.557 5.4801V8.9323H113.057C114.137 8.9323 114.859 8.86879 115.224 8.74151C115.588 8.61424 115.873 8.41502 116.08 8.14399C116.287 7.87309 116.39 7.55766 116.39 7.19796C116.39 6.75539 116.245 6.39016 115.955 6.10253C115.665 5.8149 115.298 5.63492 114.853 5.56324C114.526 5.5079 113.869 5.4801 112.881 5.4801H111.557Z" fill="#224D12"/>
<path fill-rule="evenodd" clip-rule="evenodd" d="M121.223 3.40875H123.846V10.3948C123.846 11.5035 123.878 12.2218 123.943 12.5503C124.055 13.0783 124.323 13.5022 124.745 13.8216C125.167 14.1415 125.745 14.3011 126.477 14.3011C127.221 14.3011 127.782 14.1501 128.16 13.8482C128.538 13.5461 128.766 13.175 128.842 12.7351C128.919 12.2952 128.958 11.565 128.958 10.5444V3.40875H131.58V10.1834C131.58 11.7319 131.509 12.8262 131.367 13.4651C131.226 14.1047 130.964 14.6443 130.583 15.0842C130.202 15.5242 129.693 15.8749 129.055 16.1357C128.417 16.3966 127.584 16.5271 126.557 16.5271C125.316 16.5271 124.376 16.3848 123.735 16.1005C123.094 15.816 122.588 15.4465 122.216 14.9919C121.843 14.5374 121.598 14.0608 121.48 13.5621C121.309 12.8231 121.223 11.7319 121.223 10.2892V3.40875Z" fill="#224D12"/>
<mask id="mask1_181_495" style="mask-type:alpha" maskUnits="userSpaceOnUse" x="133" y="2" width="12" height="15">
<path fill-rule="evenodd" clip-rule="evenodd" d="M133.699 2.84088H144.346V16.3916H133.699V2.84088Z" fill="white"/>
</mask>
<g mask="url(#mask1_181_495)">
<path fill-rule="evenodd" clip-rule="evenodd" d="M133.699 11.8986L136.271 11.6485C136.426 12.5122 136.74 13.1463 137.214 13.5512C137.687 13.9563 138.326 14.1585 139.13 14.1585C139.982 14.1585 140.623 13.9786 141.055 13.6182C141.487 13.2579 141.702 12.8367 141.702 12.3541C141.702 12.0447 141.612 11.7811 141.43 11.5636C141.248 11.3464 140.931 11.1572 140.478 10.9965C140.169 10.8892 139.463 10.6988 138.362 10.4248C136.944 10.0736 135.95 9.64185 135.378 9.12957C134.574 8.40894 134.172 7.53032 134.172 6.49426C134.172 5.82737 134.361 5.20354 134.739 4.62289C135.118 4.04238 135.663 3.60009 136.374 3.2963C137.086 2.99264 137.945 2.84088 138.951 2.84088C140.595 2.84088 141.832 3.20126 142.663 3.92162C143.494 4.64239 143.93 5.60427 143.972 6.80685L141.327 6.92301C141.214 6.25017 140.971 5.76632 140.599 5.47159C140.227 5.1766 139.669 5.02931 138.925 5.02931C138.156 5.02931 137.554 5.18702 137.12 5.50273C136.84 5.70526 136.7 5.97629 136.7 6.31569C136.7 6.6253 136.831 6.89052 137.093 7.11078C137.427 7.39061 138.237 7.68249 139.523 7.98615C140.809 8.28981 141.761 8.60402 142.377 8.92853C142.993 9.25317 143.476 9.69668 143.824 10.2595C144.172 10.8222 144.347 11.5177 144.347 12.3453C144.347 13.0955 144.138 13.7984 143.721 14.4534C143.305 15.1086 142.715 15.5955 141.953 15.914C141.19 16.2324 140.24 16.3916 139.103 16.3916C137.447 16.3916 136.176 16.0093 135.289 15.244C134.401 14.4789 133.871 13.3635 133.699 11.8986Z" fill="#224D12"/>
</g>
<path d="M188.037 3.64464V3.63794H154.012V15.9983H188.037V16.005H194.23L188.037 9.82483L194.23 3.64464H188.037ZM159.831 13.7662C158.691 13.7662 157.786 13.4243 157.116 12.7272C156.446 12.0368 156.11 11.085 156.11 9.86504C156.11 9.08749 156.224 8.4373 156.459 7.90776C156.633 7.51899 156.868 7.17043 157.169 6.86209C157.471 6.55375 157.8 6.32585 158.161 6.17168C158.637 5.97059 159.187 5.87004 159.81 5.87004C160.937 5.87004 161.841 6.2186 162.518 6.92242C163.195 7.61953 163.531 8.59147 163.531 9.83153C163.531 11.0649 163.195 12.0301 162.525 12.7272C161.855 13.4176 160.957 13.7662 159.831 13.7662ZM168.149 13.7662C167.009 13.7662 166.105 13.4243 165.434 12.7272C164.757 12.0368 164.422 11.085 164.422 9.86504C164.422 9.08749 164.543 8.4373 164.777 7.90776C164.945 7.51899 165.186 7.17043 165.488 6.86209C165.79 6.55375 166.118 6.32585 166.473 6.17168C166.956 5.97059 167.506 5.87004 168.129 5.87004C169.255 5.87004 170.153 6.2186 170.83 6.92242C171.507 7.61953 171.849 8.59147 171.849 9.83153C171.849 11.0649 171.514 12.0301 170.844 12.7272C170.167 13.4176 169.268 13.7662 168.149 13.7662ZM177.486 13.4981C177.037 13.6791 176.488 13.7729 175.824 13.7729C174.852 13.7729 174.108 13.5517 173.592 13.1026C173.076 12.6602 172.761 12.01 172.66 11.152C172.814 11.1386 174.014 11.0247 174.168 11.0113C174.255 11.514 174.443 11.8827 174.718 12.1173C174.993 12.3519 175.368 12.4725 175.837 12.4725C176.333 12.4725 176.709 12.3653 176.963 12.1575C177.211 11.9497 177.339 11.7017 177.339 11.4201C177.339 11.2392 177.285 11.085 177.178 10.9576C177.077 10.8303 176.89 10.723 176.622 10.6292C176.441 10.5689 176.032 10.4549 175.388 10.294C174.557 10.0929 173.981 9.83823 173.645 9.5366C173.176 9.12101 172.942 8.60488 172.942 8.00161C172.942 7.61283 173.049 7.25087 173.27 6.90901C173.491 6.57386 173.813 6.31244 174.229 6.13817C174.644 5.96389 175.147 5.87004 175.73 5.87004C176.695 5.87004 177.413 6.08454 177.902 6.50013C178.385 6.92242 178.639 7.48547 178.666 8.18259C178.512 8.18929 177.272 8.24962 177.118 8.25632C177.057 7.86084 176.91 7.57931 176.695 7.40504C176.481 7.23746 176.152 7.15032 175.717 7.15032C175.268 7.15032 174.912 7.24416 174.664 7.42515C174.497 7.5458 174.416 7.69997 174.416 7.90106C174.416 8.08204 174.49 8.23621 174.644 8.36357C174.839 8.52444 175.315 8.69872 176.065 8.873C176.816 9.04728 177.372 9.23496 177.734 9.42265C178.096 9.61033 178.378 9.87175 178.579 10.2002C178.78 10.5286 178.887 10.9308 178.887 11.4134C178.887 11.8491 178.76 12.2647 178.519 12.6468C178.277 13.0289 177.929 13.3104 177.486 13.4981ZM183.452 7.29779V13.6388H181.91V7.29779H179.638V6.00411H185.718V7.29779H183.452Z" fill="#224D12"/>
</svg>
