<svg width="142" height="15" viewBox="0 0 142 15" fill="none" xmlns="http://www.w3.org/2000/svg">
<path fill-rule="evenodd" clip-rule="evenodd" d="M80.5082 1.40875L77.9621 7.9678L75.416 14.5271H76.8161H78.2162H85.6628H87.0986H88.5343L85.917 7.9678L83.2996 1.40875H80.5082Z" fill="#F26F21"/>
<path fill-rule="evenodd" clip-rule="evenodd" d="M0.15802 1.40875H5.42986C6.47299 1.40875 7.25122 1.45201 7.76385 1.5384C8.27676 1.62506 8.73554 1.80556 9.14034 2.07991C9.54526 2.3544 9.8827 2.71975 10.1524 3.17609C10.4222 3.63244 10.5572 4.14385 10.5572 4.71072C10.5572 5.32519 10.391 5.88908 10.0579 6.40198C9.7251 6.91515 9.27395 7.29989 8.70405 7.55634C9.50791 7.78892 10.1254 8.18573 10.5572 8.74637C10.989 9.30714 11.2051 9.96636 11.2051 10.7239C11.2051 11.3206 11.0654 11.9008 10.7866 12.4645C10.5077 13.0282 10.1268 13.4785 9.64411 13.8155C9.1616 14.1527 8.56594 14.36 7.85847 14.4375C7.41455 14.4853 6.34388 14.5152 4.647 14.5271H0.15802V1.40875Z" fill="#224D12"/>
<path fill-rule="evenodd" clip-rule="evenodd" d="M2.9198 3.4801V6.24186H4.55908C5.53349 6.24186 6.13895 6.22853 6.3756 6.20124C6.80345 6.15247 7.14037 6.00974 7.38535 5.77342C7.6302 5.53722 7.75288 5.22645 7.75288 4.84061C7.75288 4.47144 7.6471 4.17128 7.43606 3.9404C7.22464 3.70976 6.91076 3.56986 6.4938 3.52085C6.24588 3.49368 5.53349 3.4801 4.35637 3.4801H2.9198Z" fill="#224D12"/>
<path fill-rule="evenodd" clip-rule="evenodd" d="M2.9198 8.31317V11.7654H5.33748C6.27839 11.7654 6.87589 11.7388 7.12864 11.686C7.51685 11.6155 7.83312 11.4439 8.07704 11.1709C8.32109 10.8979 8.44332 10.5324 8.44332 10.0742C8.44332 9.68706 8.34931 9.35833 8.16089 9.08833C7.97246 8.81807 7.70073 8.62134 7.34474 8.49802C6.98876 8.3747 6.21661 8.31317 5.0287 8.31317H2.9198Z" fill="#224D12"/>
<path fill-rule="evenodd" clip-rule="evenodd" d="M13.2764 1.40875H15.8989V8.39477C15.8989 9.50352 15.931 10.2218 15.9961 10.5503C16.1082 11.0783 16.3758 11.5022 16.7979 11.8216C17.2202 12.1415 17.7978 12.3011 18.53 12.3011C19.2741 12.3011 19.8355 12.1501 20.2133 11.8482C20.5911 11.5461 20.8189 11.175 20.8955 10.7351C20.9722 10.2952 21.0107 9.56499 21.0107 8.54438V1.40875H23.633V8.18342C23.633 9.73194 23.5622 10.8262 23.4204 11.4651C23.2788 12.1047 23.0172 12.6443 22.6364 13.0842C22.2554 13.5242 21.746 13.8749 21.1081 14.1357C20.4703 14.3966 19.6374 14.5271 18.6097 14.5271C17.3694 14.5271 16.4288 14.3848 15.788 14.1005C15.147 13.816 14.6408 13.4465 14.2686 12.9919C13.8964 12.5374 13.6515 12.0608 13.5334 11.5621C13.3619 10.8231 13.2764 9.73194 13.2764 8.28916V1.40875Z" fill="#224D12"/>
<path fill-rule="evenodd" clip-rule="evenodd" d="M26.3947 1.40875H29.0172V8.39477C29.0172 9.50352 29.0493 10.2218 29.1144 10.5503C29.2266 11.0783 29.4941 11.5022 29.9163 11.8216C30.3386 12.1415 30.9162 12.3011 31.6483 12.3011C32.3925 12.3011 32.9538 12.1501 33.3317 11.8482C33.7095 11.5461 33.9372 11.175 34.0139 10.7351C34.0905 10.2952 34.1291 9.56499 34.1291 8.54438V1.40875H36.7513V8.18342C36.7513 9.73194 36.6806 10.8262 36.5388 11.4651C36.3971 12.1047 36.1356 12.6443 35.7548 13.0842C35.3737 13.5242 34.8643 13.8749 34.2264 14.1357C33.5886 14.3966 32.7558 14.5271 31.7281 14.5271C30.4877 14.5271 29.5472 14.3848 28.9063 14.1005C28.2653 13.816 27.7591 13.4465 27.387 12.9919C27.0148 12.5374 26.7699 12.0608 26.6517 11.5621C26.4802 10.8231 26.3947 9.73194 26.3947 8.28916V1.40875Z" fill="#224D12"/>
<path fill-rule="evenodd" clip-rule="evenodd" d="M39.5131 14.5271V1.40875H45.0612C46.4563 1.40875 47.4702 1.5266 48.1026 1.76217C48.7348 1.99814 49.2412 2.41706 49.621 3.01947C50.0008 3.62202 50.191 4.31109 50.191 5.08655C50.191 6.07086 49.9028 6.88388 49.327 7.52508C48.7513 8.16627 47.8902 8.57055 46.7446 8.73763C47.3145 9.07179 47.785 9.43863 48.1559 9.83816C48.5269 10.2378 49.0273 10.9476 49.6565 11.9679L51.2506 14.5271H48.098L46.1924 11.6725C45.5154 10.6525 45.0525 10.0096 44.8031 9.74418C44.5536 9.47891 44.2896 9.29677 44.0105 9.19832C43.7313 9.09999 43.289 9.05077 42.6835 9.05077H42.1493V14.5271H39.5131Z" fill="#224D12"/>
<path fill-rule="evenodd" clip-rule="evenodd" d="M42.2748 6.9323H44.2978C45.6094 6.9323 46.428 6.87675 46.7546 6.76535C47.0812 6.65396 47.3365 6.46212 47.5213 6.18996C47.7061 5.91767 47.7984 5.57744 47.7984 5.169C47.7984 4.71119 47.677 4.34185 47.4336 4.05999C47.1901 3.7787 46.8471 3.60078 46.4037 3.52638C46.1819 3.49557 45.517 3.4801 44.4084 3.4801H42.2748V6.9323Z" fill="#224D12"/>
<path fill-rule="evenodd" clip-rule="evenodd" d="M55.808 14.5271V3.62799H51.941V1.40875H62.2976V3.62799H58.4395V14.5271H55.808Z" fill="#224D12"/>
<mask id="mask0_181_497" style="mask-type:alpha" maskUnits="userSpaceOnUse" x="63" y="0" width="13" height="15">
<path fill-rule="evenodd" clip-rule="evenodd" d="M63.7328 0.840698H75.1401V14.3829H63.7328V0.840698Z" fill="white"/>
</mask>
<g mask="url(#mask0_181_497)">
<path fill-rule="evenodd" clip-rule="evenodd" d="M72.5764 9.34483L75.1401 10.1578C74.747 11.587 74.0938 12.6485 73.1794 13.3421C72.2652 14.0362 71.1055 14.3829 69.7 14.3829C67.9612 14.3829 66.532 13.789 65.4124 12.6007C64.2925 11.4126 63.7328 9.78833 63.7328 7.72798C63.7328 5.54822 64.2956 3.85556 65.4212 2.64973C66.5467 1.44362 68.0266 0.840637 69.8608 0.840637C71.4629 0.840637 72.7639 1.3142 73.7644 2.26091C74.3599 2.82098 74.8066 3.62487 75.1044 4.67285L72.487 5.29831C72.3322 4.61937 72.0093 4.08327 71.5179 3.69026C71.0266 3.29739 70.4293 3.10068 69.7268 3.10068C68.7563 3.10068 67.9685 3.44915 67.3642 4.14595C66.7597 4.84275 66.4574 5.97128 66.4574 7.53127C66.4574 9.18724 66.7554 10.3663 67.3506 11.0688C67.9462 11.7715 68.7207 12.1228 69.6733 12.1228C70.3758 12.1228 70.9804 11.8996 71.4865 11.453C71.9927 11.0064 72.3562 10.3036 72.5764 9.34483Z" fill="#224D12"/>
</g>
<path fill-rule="evenodd" clip-rule="evenodd" d="M90.6057 14.5271V1.40875H94.4938L96.8282 10.3572L99.1367 1.40875H103.034V14.5271H100.62V4.2007L98.0658 14.5271H95.5644L93.0192 4.2007V14.5271H90.6057Z" fill="#224D12"/>
<path fill-rule="evenodd" clip-rule="evenodd" d="M105.795 14.5271V1.40875H110.176C111.836 1.40875 112.918 1.47439 113.422 1.60567C114.197 1.80245 114.846 2.23059 115.368 2.88969C115.891 3.54892 116.152 4.40073 116.152 5.44458C116.152 6.24973 116.001 6.92687 115.7 7.47585C115.399 8.02469 115.016 8.45554 114.552 8.76868C114.088 9.08196 113.616 9.28945 113.136 9.39076C112.485 9.51607 111.541 9.57859 110.305 9.57859H108.525V14.5271H105.795Z" fill="#224D12"/>
<path fill-rule="evenodd" clip-rule="evenodd" d="M108.557 3.4801V6.9323H110.057C111.137 6.9323 111.859 6.86879 112.224 6.74151C112.588 6.61424 112.873 6.41502 113.08 6.14399C113.287 5.87309 113.39 5.55766 113.39 5.19796C113.39 4.75539 113.245 4.39016 112.955 4.10253C112.665 3.8149 112.298 3.63492 111.853 3.56324C111.526 3.5079 110.869 3.4801 109.881 3.4801H108.557Z" fill="#224D12"/>
<path fill-rule="evenodd" clip-rule="evenodd" d="M118.223 1.40875H120.846V8.39477C120.846 9.50352 120.878 10.2218 120.943 10.5503C121.055 11.0783 121.323 11.5022 121.745 11.8216C122.167 12.1415 122.745 12.3011 123.477 12.3011C124.221 12.3011 124.782 12.1501 125.16 11.8482C125.538 11.5461 125.766 11.175 125.842 10.7351C125.919 10.2952 125.958 9.56499 125.958 8.54438V1.40875H128.58V8.18342C128.58 9.73194 128.509 10.8262 128.367 11.4651C128.226 12.1047 127.964 12.6443 127.583 13.0842C127.202 13.5242 126.693 13.8749 126.055 14.1357C125.417 14.3966 124.584 14.5271 123.557 14.5271C122.316 14.5271 121.376 14.3848 120.735 14.1005C120.094 13.816 119.588 13.4465 119.216 12.9919C118.843 12.5374 118.598 12.0608 118.48 11.5621C118.309 10.8231 118.223 9.73194 118.223 8.28916V1.40875Z" fill="#224D12"/>
<mask id="mask1_181_497" style="mask-type:alpha" maskUnits="userSpaceOnUse" x="130" y="0" width="12" height="15">
<path fill-rule="evenodd" clip-rule="evenodd" d="M130.699 0.840881H141.346V14.3916H130.699V0.840881Z" fill="white"/>
</mask>
<g mask="url(#mask1_181_497)">
<path fill-rule="evenodd" clip-rule="evenodd" d="M130.699 9.89864L133.271 9.64846C133.426 10.5122 133.74 11.1463 134.214 11.5512C134.687 11.9563 135.326 12.1585 136.13 12.1585C136.982 12.1585 137.623 11.9786 138.055 11.6182C138.487 11.2579 138.702 10.8367 138.702 10.3541C138.702 10.0447 138.612 9.78113 138.43 9.56357C138.248 9.34642 137.931 9.15716 137.478 8.99647C137.169 8.88925 136.463 8.69877 135.362 8.42476C133.944 8.07358 132.95 7.64185 132.378 7.12957C131.574 6.40894 131.172 5.53032 131.172 4.49426C131.172 3.82737 131.361 3.20354 131.739 2.62289C132.118 2.04238 132.663 1.60009 133.374 1.2963C134.086 0.992643 134.945 0.840881 135.951 0.840881C137.595 0.840881 138.832 1.20126 139.663 1.92162C140.494 2.64239 140.93 3.60427 140.972 4.80685L138.327 4.92301C138.214 4.25017 137.971 3.76632 137.599 3.47159C137.227 3.1766 136.669 3.02931 135.925 3.02931C135.156 3.02931 134.554 3.18702 134.12 3.50273C133.84 3.70526 133.7 3.97629 133.7 4.31569C133.7 4.6253 133.831 4.89052 134.093 5.11078C134.427 5.39061 135.237 5.68249 136.523 5.98615C137.809 6.28981 138.761 6.60402 139.377 6.92853C139.993 7.25317 140.476 7.69668 140.824 8.25946C141.172 8.82223 141.347 9.51768 141.347 10.3453C141.347 11.0955 141.138 11.7984 140.721 12.4534C140.305 13.1086 139.715 13.5955 138.953 13.914C138.19 14.2324 137.24 14.3916 136.103 14.3916C134.447 14.3916 133.176 14.0093 132.289 13.244C131.401 12.4789 130.871 11.3635 130.699 9.89864Z" fill="#224D12"/>
</g>
</svg>
