<svg width="205" height="20" viewBox="0 0 205 20" fill="none" xmlns="http://www.w3.org/2000/svg">
<path fill-rule="evenodd" clip-rule="evenodd" d="M83.5082 3.40873L80.9621 9.96778L78.416 16.5271H79.8161H81.2162H88.6628H90.0986H91.5343L88.917 9.96778L86.2996 3.40873H83.5082Z" fill="#F26F21"/>
<path fill-rule="evenodd" clip-rule="evenodd" d="M3.158 3.40873H8.42984C9.47298 3.40873 10.2512 3.45199 10.7638 3.53838C11.2767 3.62504 11.7355 3.80554 12.1403 4.07989C12.5452 4.35438 12.8827 4.71973 13.1524 5.17607C13.4222 5.63242 13.5572 6.14383 13.5572 6.7107C13.5572 7.32517 13.391 7.88906 13.0579 8.40196C12.7251 8.91513 12.2739 9.29987 11.704 9.55632C12.5079 9.7889 13.1254 10.1857 13.5572 10.7463C13.9889 11.3071 14.205 11.9663 14.205 12.7239C14.205 13.3206 14.0654 13.9008 13.7866 14.4645C13.5077 15.0281 13.1267 15.4785 12.6441 15.8155C12.1616 16.1527 11.5659 16.36 10.8585 16.4375C10.4145 16.4853 9.34386 16.5152 7.64698 16.5271H3.158V3.40873Z" fill="#467933"/>
<path fill-rule="evenodd" clip-rule="evenodd" d="M5.91976 5.48005V8.24181H7.55905C8.53345 8.24181 9.13891 8.22848 9.37557 8.20119C9.80341 8.15242 10.1403 8.00969 10.3853 7.77337C10.6302 7.53717 10.7528 7.2264 10.7528 6.84056C10.7528 6.47139 10.6471 6.17123 10.436 5.94035C10.2246 5.7097 9.91072 5.56981 9.49376 5.5208C9.24584 5.49363 8.53345 5.48005 7.35633 5.48005H5.91976Z" fill="#467933"/>
<path fill-rule="evenodd" clip-rule="evenodd" d="M5.91976 10.3131V13.7653H8.33744C9.27835 13.7653 9.87585 13.7388 10.1286 13.6859C10.5168 13.6155 10.8331 13.4438 11.077 13.1709C11.3211 12.8978 11.4433 12.5324 11.4433 12.0742C11.4433 11.687 11.3493 11.3583 11.1608 11.0883C10.9724 10.818 10.7007 10.6213 10.3447 10.498C9.98872 10.3747 9.21657 10.3131 8.02866 10.3131H5.91976Z" fill="#467933"/>
<path fill-rule="evenodd" clip-rule="evenodd" d="M16.2764 3.40873H18.8989V10.3947C18.8989 11.5035 18.931 12.2218 18.9961 12.5502C19.1082 13.0783 19.3758 13.5022 19.7979 13.8215C20.2202 14.1414 20.7978 14.3011 21.53 14.3011C22.2741 14.3011 22.8355 14.1501 23.2133 13.8482C23.5911 13.5461 23.8189 13.175 23.8955 12.7351C23.9722 12.2952 24.0107 11.565 24.0107 10.5444V3.40873H26.633V10.1834C26.633 11.7319 26.5622 12.8261 26.4204 13.4651C26.2788 14.1046 26.0172 14.6443 25.6364 15.0842C25.2554 15.5242 24.746 15.8749 24.1081 16.1357C23.4703 16.3965 22.6374 16.5271 21.6097 16.5271C20.3694 16.5271 19.4288 16.3848 18.788 16.1005C18.147 15.816 17.6408 15.4465 17.2686 14.9919C16.8964 14.5373 16.6515 14.0608 16.5334 13.5621C16.3619 12.8231 16.2764 11.7319 16.2764 10.2891V3.40873Z" fill="#467933"/>
<path fill-rule="evenodd" clip-rule="evenodd" d="M29.3947 3.40873H32.0172V10.3947C32.0172 11.5035 32.0493 12.2218 32.1144 12.5502C32.2266 13.0783 32.4942 13.5022 32.9163 13.8215C33.3386 14.1414 33.9162 14.3011 34.6483 14.3011C35.3925 14.3011 35.9538 14.1501 36.3317 13.8482C36.7095 13.5461 36.9372 13.175 37.0139 12.7351C37.0905 12.2952 37.1291 11.565 37.1291 10.5444V3.40873H39.7513V10.1834C39.7513 11.7319 39.6806 12.8261 39.5388 13.4651C39.3971 14.1046 39.1356 14.6443 38.7548 15.0842C38.3737 15.5242 37.8643 15.8749 37.2264 16.1357C36.5886 16.3965 35.7558 16.5271 34.7281 16.5271C33.4877 16.5271 32.5472 16.3848 31.9063 16.1005C31.2653 15.816 30.7592 15.4465 30.387 14.9919C30.0148 14.5373 29.7699 14.0608 29.6517 13.5621C29.4802 12.8231 29.3947 11.7319 29.3947 10.2891V3.40873Z" fill="#467933"/>
<path fill-rule="evenodd" clip-rule="evenodd" d="M42.5131 16.5271V3.40873H48.0612C49.4562 3.40873 50.4701 3.52658 51.1026 3.76215C51.7348 3.99812 52.2412 4.41704 52.621 5.01945C53.0008 5.622 53.1909 6.31107 53.1909 7.08653C53.1909 8.07084 52.9028 8.88386 52.327 9.52506C51.7512 10.1663 50.8901 10.5705 49.7445 10.7376C50.3145 11.0718 50.785 11.4386 51.1559 11.8381C51.5269 12.2378 52.0272 12.9476 52.6565 13.9679L54.2506 16.5271H51.098L49.1924 13.6725C48.5154 12.6525 48.0524 12.0096 47.803 11.7442C47.5536 11.4789 47.2896 11.2968 47.0105 11.1983C46.7312 11.1 46.2889 11.0507 45.6835 11.0507H45.1493V16.5271H42.5131Z" fill="#467933"/>
<path fill-rule="evenodd" clip-rule="evenodd" d="M45.2748 8.93225H47.2978C48.6094 8.93225 49.428 8.8767 49.7546 8.7653C50.0812 8.65391 50.3365 8.46207 50.5213 8.18991C50.7061 7.91762 50.7984 7.57739 50.7984 7.16895C50.7984 6.71114 50.677 6.3418 50.4336 6.05994C50.1901 5.77865 49.8471 5.60073 49.4037 5.52633C49.1819 5.49552 48.517 5.48005 47.4084 5.48005H45.2748V8.93225Z" fill="#467933"/>
<path fill-rule="evenodd" clip-rule="evenodd" d="M58.808 16.5271V5.62797H54.941V3.40873H65.2976V5.62797H61.4395V16.5271H58.808Z" fill="#467933"/>
<mask id="mask0_1_2" style="mask-type:alpha" maskUnits="userSpaceOnUse" x="66" y="2" width="13" height="15">
<path fill-rule="evenodd" clip-rule="evenodd" d="M66.7329 2.84068H78.1401V16.3828H66.7329V2.84068Z" fill="white"/>
</mask>
<g mask="url(#mask0_1_2)">
<path fill-rule="evenodd" clip-rule="evenodd" d="M75.5764 11.3448L78.1401 12.1578C77.747 13.587 77.0938 14.6485 76.1794 15.342C75.2652 16.0361 74.1055 16.3828 72.7 16.3828C70.9612 16.3828 69.532 15.7889 68.4124 14.6007C67.2925 13.4126 66.7329 11.7883 66.7329 9.72795C66.7329 7.54819 67.2956 5.85553 68.4212 4.6497C69.5467 3.44359 71.0266 2.84061 72.8608 2.84061C74.4629 2.84061 75.7639 3.31417 76.7644 4.26088C77.3599 4.82095 77.8066 5.62484 78.1044 6.67282L75.487 7.29828C75.3322 6.61935 75.0093 6.08324 74.5179 5.69023C74.0266 5.29736 73.4293 5.10065 72.7268 5.10065C71.7563 5.10065 70.9685 5.44912 70.3642 6.14592C69.7597 6.84272 69.4574 7.97125 69.4574 9.53124C69.4574 11.1872 69.7554 12.3662 70.3506 13.0687C70.9462 13.7715 71.7207 14.1228 72.6733 14.1228C73.3758 14.1228 73.9804 13.8996 74.4865 13.4529C74.9927 13.0063 75.3562 12.3036 75.5764 11.3448Z" fill="#467933"/>
</g>
<path fill-rule="evenodd" clip-rule="evenodd" d="M93.6056 16.5271V3.40873H97.4938L99.8282 12.3571L102.137 3.40873H106.034V16.5271H103.62V6.20068L101.066 16.5271H98.5644L96.0192 6.20068V16.5271H93.6056Z" fill="#467933"/>
<path fill-rule="evenodd" clip-rule="evenodd" d="M108.795 16.5271V3.40873H113.176C114.836 3.40873 115.918 3.47437 116.422 3.60565C117.197 3.80243 117.846 4.23057 118.368 4.88967C118.891 5.5489 119.152 6.40071 119.152 7.44456C119.152 8.24971 119.001 8.92685 118.7 9.47583C118.399 10.0247 118.016 10.4555 117.552 10.7687C117.088 11.0819 116.616 11.2894 116.136 11.3907C115.485 11.516 114.541 11.5786 113.305 11.5786H111.525V16.5271H108.795Z" fill="#467933"/>
<path fill-rule="evenodd" clip-rule="evenodd" d="M111.557 5.48005V8.93225H113.057C114.137 8.93225 114.859 8.86874 115.224 8.74146C115.588 8.61419 115.873 8.41497 116.08 8.14394C116.287 7.87304 116.39 7.55761 116.39 7.19791C116.39 6.75534 116.245 6.39011 115.955 6.10248C115.665 5.81485 115.298 5.63487 114.853 5.56318C114.526 5.50785 113.869 5.48005 112.881 5.48005H111.557Z" fill="#467933"/>
<path fill-rule="evenodd" clip-rule="evenodd" d="M121.223 3.40873H123.846V10.3947C123.846 11.5035 123.878 12.2218 123.943 12.5502C124.055 13.0783 124.323 13.5022 124.745 13.8215C125.167 14.1414 125.745 14.3011 126.477 14.3011C127.221 14.3011 127.782 14.1501 128.16 13.8482C128.538 13.5461 128.766 13.175 128.842 12.7351C128.919 12.2952 128.958 11.565 128.958 10.5444V3.40873H131.58V10.1834C131.58 11.7319 131.509 12.8261 131.367 13.4651C131.226 14.1046 130.964 14.6443 130.583 15.0842C130.202 15.5242 129.693 15.8749 129.055 16.1357C128.417 16.3965 127.584 16.5271 126.557 16.5271C125.316 16.5271 124.376 16.3848 123.735 16.1005C123.094 15.816 122.588 15.4465 122.215 14.9919C121.843 14.5373 121.598 14.0608 121.48 13.5621C121.309 12.8231 121.223 11.7319 121.223 10.2891V3.40873Z" fill="#467933"/>
<mask id="mask1_1_2" style="mask-type:alpha" maskUnits="userSpaceOnUse" x="133" y="2" width="12" height="15">
<path fill-rule="evenodd" clip-rule="evenodd" d="M133.699 2.84085H144.346V16.3916H133.699V2.84085Z" fill="white"/>
</mask>
<g mask="url(#mask1_1_2)">
<path fill-rule="evenodd" clip-rule="evenodd" d="M133.699 11.8986L136.271 11.6484C136.426 12.5122 136.74 13.1463 137.214 13.5512C137.687 13.9563 138.326 14.1585 139.13 14.1585C139.982 14.1585 140.623 13.9786 141.055 13.6182C141.487 13.2578 141.702 12.8367 141.702 12.354C141.702 12.0447 141.612 11.7811 141.43 11.5635C141.248 11.3464 140.931 11.1571 140.478 10.9964C140.169 10.8892 139.463 10.6987 138.362 10.4247C136.944 10.0735 135.95 9.64182 135.378 9.12954C134.574 8.40891 134.172 7.53029 134.172 6.49423C134.172 5.82734 134.361 5.20351 134.739 4.62286C135.118 4.04235 135.663 3.60007 136.374 3.29627C137.086 2.99261 137.945 2.84085 138.951 2.84085C140.595 2.84085 141.832 3.20123 142.663 3.92159C143.494 4.64236 143.93 5.60424 143.972 6.80682L141.327 6.92298C141.214 6.25014 140.971 5.76629 140.599 5.47156C140.227 5.17657 139.669 5.02928 138.925 5.02928C138.156 5.02928 137.554 5.18699 137.12 5.5027C136.84 5.70523 136.7 5.97626 136.7 6.31566C136.7 6.62528 136.831 6.89049 137.093 7.11075C137.427 7.39058 138.237 7.68246 139.523 7.98612C140.809 8.28978 141.761 8.604 142.377 8.9285C142.993 9.25314 143.476 9.69665 143.824 10.2594C144.172 10.8222 144.347 11.5177 144.347 12.3452C144.347 13.0955 144.138 13.7984 143.721 14.4534C143.305 15.1086 142.715 15.5954 141.953 15.914C141.19 16.2324 140.24 16.3916 139.103 16.3916C137.447 16.3916 136.176 16.0093 135.289 15.244C134.401 14.4788 133.872 13.3634 133.699 11.8986Z" fill="#467933"/>
</g>
<path d="M188.037 3.64465V3.63795H154.012V15.9983H188.037V16.005H194.23L188.037 9.82484L194.23 3.64465H188.037ZM159.831 13.7662C158.691 13.7662 157.786 13.4244 157.116 12.7272C156.446 12.0368 156.11 11.085 156.11 9.86505C156.11 9.0875 156.224 8.43731 156.459 7.90777C156.633 7.519 156.868 7.17044 157.169 6.8621C157.471 6.55376 157.8 6.32586 158.161 6.17169C158.637 5.9706 159.187 5.87005 159.81 5.87005C160.937 5.87005 161.841 6.21861 162.518 6.92243C163.195 7.61954 163.531 8.59148 163.531 9.83154C163.531 11.0649 163.195 12.0301 162.525 12.7272C161.855 13.4177 160.957 13.7662 159.831 13.7662ZM168.149 13.7662C167.009 13.7662 166.105 13.4244 165.434 12.7272C164.757 12.0368 164.422 11.085 164.422 9.86505C164.422 9.0875 164.543 8.43731 164.777 7.90777C164.945 7.519 165.186 7.17044 165.488 6.8621C165.79 6.55376 166.118 6.32586 166.473 6.17169C166.956 5.9706 167.506 5.87005 168.129 5.87005C169.255 5.87005 170.153 6.21861 170.83 6.92243C171.507 7.61954 171.849 8.59148 171.849 9.83154C171.849 11.0649 171.514 12.0301 170.844 12.7272C170.167 13.4177 169.268 13.7662 168.149 13.7662ZM177.486 13.4981C177.037 13.6791 176.488 13.7729 175.824 13.7729C174.852 13.7729 174.108 13.5517 173.592 13.1026C173.076 12.6602 172.761 12.01 172.66 11.152C172.814 11.1386 174.014 11.0247 174.168 11.0113C174.255 11.514 174.443 11.8827 174.718 12.1173C174.993 12.3519 175.368 12.4725 175.837 12.4725C176.333 12.4725 176.709 12.3653 176.963 12.1575C177.211 11.9497 177.339 11.7017 177.339 11.4202C177.339 11.2392 177.285 11.085 177.178 10.9576C177.077 10.8303 176.89 10.723 176.622 10.6292C176.441 10.5689 176.032 10.4549 175.388 10.294C174.557 10.093 173.981 9.83824 173.645 9.53661C173.176 9.12102 172.942 8.60489 172.942 8.00161C172.942 7.61284 173.049 7.25088 173.27 6.90902C173.491 6.57387 173.813 6.31245 174.229 6.13818C174.644 5.9639 175.147 5.87005 175.73 5.87005C176.695 5.87005 177.413 6.08455 177.902 6.50014C178.385 6.92243 178.639 7.48548 178.666 8.1826C178.512 8.1893 177.272 8.24963 177.118 8.25633C177.057 7.86085 176.91 7.57932 176.695 7.40505C176.481 7.23747 176.152 7.15033 175.717 7.15033C175.268 7.15033 174.912 7.24417 174.664 7.42516C174.497 7.54581 174.416 7.69998 174.416 7.90107C174.416 8.08205 174.49 8.23622 174.644 8.36358C174.839 8.52445 175.315 8.69873 176.065 8.87301C176.816 9.04729 177.372 9.23497 177.734 9.42266C178.096 9.61034 178.378 9.87176 178.579 10.2002C178.78 10.5287 178.887 10.9308 178.887 11.4135C178.887 11.8491 178.76 12.2647 178.519 12.6468C178.277 13.0289 177.929 13.3104 177.486 13.4981ZM183.452 7.2978V13.6389H181.91V7.2978H179.638V6.00411H185.718V7.2978H183.452Z" fill="#709800"/>
<path d="M188.037 3.64465V3.63795H154.012V15.9983H188.037V16.005H194.23L188.037 9.82484L194.23 3.64465H188.037ZM159.831 13.7662C158.691 13.7662 157.786 13.4244 157.116 12.7272C156.446 12.0368 156.11 11.085 156.11 9.86505C156.11 9.0875 156.224 8.43731 156.459 7.90777C156.633 7.519 156.868 7.17044 157.169 6.8621C157.471 6.55376 157.8 6.32586 158.161 6.17169C158.637 5.9706 159.187 5.87005 159.81 5.87005C160.937 5.87005 161.841 6.21861 162.518 6.92243C163.195 7.61954 163.531 8.59148 163.531 9.83154C163.531 11.0649 163.195 12.0301 162.525 12.7272C161.855 13.4177 160.957 13.7662 159.831 13.7662ZM168.149 13.7662C167.009 13.7662 166.105 13.4244 165.434 12.7272C164.757 12.0368 164.422 11.085 164.422 9.86505C164.422 9.0875 164.543 8.43731 164.777 7.90777C164.945 7.519 165.186 7.17044 165.488 6.8621C165.79 6.55376 166.118 6.32586 166.473 6.17169C166.956 5.9706 167.506 5.87005 168.129 5.87005C169.255 5.87005 170.153 6.21861 170.83 6.92243C171.507 7.61954 171.849 8.59148 171.849 9.83154C171.849 11.0649 171.514 12.0301 170.844 12.7272C170.167 13.4177 169.268 13.7662 168.149 13.7662ZM177.486 13.4981C177.037 13.6791 176.488 13.7729 175.824 13.7729C174.852 13.7729 174.108 13.5517 173.592 13.1026C173.076 12.6602 172.761 12.01 172.66 11.152C172.814 11.1386 174.014 11.0247 174.168 11.0113C174.255 11.514 174.443 11.8827 174.718 12.1173C174.993 12.3519 175.368 12.4725 175.837 12.4725C176.333 12.4725 176.709 12.3653 176.963 12.1575C177.211 11.9497 177.339 11.7017 177.339 11.4202C177.339 11.2392 177.285 11.085 177.178 10.9576C177.077 10.8303 176.89 10.723 176.622 10.6292C176.441 10.5689 176.032 10.4549 175.388 10.294C174.557 10.093 173.981 9.83824 173.645 9.53661C173.176 9.12102 172.942 8.60489 172.942 8.00161C172.942 7.61284 173.049 7.25088 173.27 6.90902C173.491 6.57387 173.813 6.31245 174.229 6.13818C174.644 5.9639 175.147 5.87005 175.73 5.87005C176.695 5.87005 177.413 6.08455 177.902 6.50014C178.385 6.92243 178.639 7.48548 178.666 8.1826C178.512 8.1893 177.272 8.24963 177.118 8.25633C177.057 7.86085 176.91 7.57932 176.695 7.40505C176.481 7.23747 176.152 7.15033 175.717 7.15033C175.268 7.15033 174.912 7.24417 174.664 7.42516C174.497 7.54581 174.416 7.69998 174.416 7.90107C174.416 8.08205 174.49 8.23622 174.644 8.36358C174.839 8.52445 175.315 8.69873 176.065 8.87301C176.816 9.04729 177.372 9.23497 177.734 9.42266C178.096 9.61034 178.378 9.87176 178.579 10.2002C178.78 10.5287 178.887 10.9308 178.887 11.4135C178.887 11.8491 178.76 12.2647 178.519 12.6468C178.277 13.0289 177.929 13.3104 177.486 13.4981ZM183.452 7.2978V13.6389H181.91V7.2978H179.638V6.00411H185.718V7.2978H183.452Z" fill="#709800"/>
<rect x="0.5" y="0.5" width="204" height="19" stroke="#467933"/>
</svg>
