<svg width="265" height="31" viewBox="0 0 265 31" fill="none" xmlns="http://www.w3.org/2000/svg">
<path fill-rule="evenodd" clip-rule="evenodd" d="M107.95 5.28353L104.658 15.4501L101.367 25.617H103.177H104.987H114.613H116.469H118.325L114.942 15.4501L111.558 5.28353H107.95Z" fill="#F26F21"/>
<path fill-rule="evenodd" clip-rule="evenodd" d="M4.08231 5.28353H10.8971C12.2456 5.28353 13.2516 5.35059 13.9142 5.48449C14.5773 5.61881 15.1703 5.89859 15.6936 6.32383C16.217 6.74928 16.6532 7.31557 17.0018 8.02291C17.3506 8.73025 17.5251 9.52293 17.5251 10.4016C17.5251 11.354 17.3103 12.228 16.8797 13.023C16.4495 13.8184 15.8663 14.4148 15.1296 14.8123C16.1687 15.1728 16.967 15.7878 17.5251 16.6568C18.0833 17.526 18.3626 18.5478 18.3626 19.722C18.3626 20.6469 18.1822 21.5462 17.8217 22.42C17.4611 23.2936 16.9687 23.9917 16.3448 24.514C15.7211 25.0366 14.9511 25.358 14.0365 25.478C13.4627 25.5522 12.0787 25.5985 9.88513 25.617H4.08231V5.28353Z" fill="#467933"/>
<path fill-rule="evenodd" clip-rule="evenodd" d="M7.65237 8.49408V12.7748H9.77145C11.031 12.7748 11.8137 12.7541 12.1196 12.7118C12.6727 12.6363 13.1082 12.415 13.4249 12.0487C13.7414 11.6826 13.9 11.2009 13.9 10.6029C13.9 10.0306 13.7633 9.56541 13.4905 9.20753C13.2172 8.85004 12.8114 8.63321 12.2724 8.55723C11.9519 8.51513 11.031 8.49408 9.5094 8.49408H7.65237Z" fill="#467933"/>
<path fill-rule="evenodd" clip-rule="evenodd" d="M7.65237 15.9854V21.3363H10.7777C11.994 21.3363 12.7663 21.2951 13.0931 21.2132C13.5949 21.1039 14.0037 20.8379 14.319 20.4149C14.6345 19.9916 14.7925 19.4252 14.7925 18.715C14.7925 18.1149 14.671 17.6054 14.4274 17.1869C14.1839 16.7679 13.8326 16.463 13.3724 16.2719C12.9122 16.0807 11.9141 15.9854 10.3785 15.9854H7.65237Z" fill="#467933"/>
<path fill-rule="evenodd" clip-rule="evenodd" d="M21.0402 5.28353H24.4303V16.1119C24.4303 17.8304 24.4718 18.9438 24.5559 19.4529C24.7009 20.2713 25.0468 20.9284 25.5925 21.4234C26.1383 21.9192 26.885 22.1666 27.8315 22.1666C28.7934 22.1666 29.519 21.9327 30.0075 21.4647C30.4959 20.9964 30.7902 20.4212 30.8893 19.7393C30.9884 19.0575 31.0383 17.9257 31.0383 16.3437V5.28353H34.428V15.7843C34.428 18.1845 34.3365 19.8805 34.1532 20.8709C33.9701 21.8622 33.632 22.6986 33.1398 23.3805C32.6472 24.0625 31.9887 24.6061 31.1641 25.0104C30.3397 25.4146 29.263 25.617 27.9346 25.617C26.3312 25.617 25.1153 25.3965 24.2869 24.9558C23.4583 24.5147 22.804 23.942 22.3228 23.2374C21.8417 22.5329 21.5251 21.7942 21.3724 21.0212C21.1508 19.8758 21.0402 18.1845 21.0402 15.9482V5.28353Z" fill="#467933"/>
<path fill-rule="evenodd" clip-rule="evenodd" d="M37.9981 5.28353H41.3882V16.1119C41.3882 17.8304 41.4296 18.9438 41.5138 19.4529C41.6587 20.2713 42.0047 20.9284 42.5504 21.4234C43.0962 21.9192 43.8429 22.1666 44.7893 22.1666C45.7512 22.1666 46.4769 21.9327 46.9653 21.4647C47.4538 20.9964 47.7481 20.4212 47.8472 19.7393C47.9463 19.0575 47.9961 17.9257 47.9961 16.3437V5.28353H51.3859V15.7843C51.3859 18.1845 51.2944 19.8805 51.1111 20.8709C50.928 21.8622 50.5899 22.6986 50.0977 23.3805C49.6051 24.0625 48.9466 24.6061 48.122 25.0104C47.2975 25.4146 46.2209 25.617 44.8924 25.617C43.289 25.617 42.0732 25.3965 41.2448 24.9558C40.4162 24.5147 39.7619 23.942 39.2807 23.2374C38.7996 22.5329 38.483 21.7942 38.3303 21.0212C38.1086 19.8758 37.9981 18.1845 37.9981 15.9482V5.28353Z" fill="#467933"/>
<path fill-rule="evenodd" clip-rule="evenodd" d="M54.9559 25.617V5.28353H62.1279C63.9312 5.28353 65.2419 5.4662 66.0594 5.83133C66.8766 6.19709 67.5313 6.84641 68.0222 7.78015C68.5132 8.7141 68.759 9.78215 68.759 10.9841C68.759 12.5098 68.3865 13.77 67.6422 14.7638C66.8979 15.7577 65.7848 16.3843 64.3039 16.6433C65.0407 17.1612 65.6489 17.7298 66.1283 18.3491C66.608 18.9686 67.2547 20.0688 68.0681 21.6502L70.1288 25.617H66.0535L63.5901 21.1924C62.715 19.6114 62.1166 18.6148 61.7941 18.2034C61.4717 17.7923 61.1304 17.51 60.7696 17.3574C60.4087 17.205 59.8369 17.1287 59.0542 17.1287H58.3637V25.617H54.9559Z" fill="#467933"/>
<path fill-rule="evenodd" clip-rule="evenodd" d="M58.526 13.845H61.1411C62.8365 13.845 63.8947 13.7589 64.3169 13.5862C64.7391 13.4136 65.0692 13.1162 65.308 12.6944C65.5469 12.2723 65.6662 11.745 65.6662 11.1119C65.6662 10.4023 65.5093 9.82979 65.1946 9.39291C64.8799 8.9569 64.4365 8.68113 63.8633 8.5658C63.5766 8.51806 62.717 8.49408 61.284 8.49408H58.526V13.845Z" fill="#467933"/>
<path fill-rule="evenodd" clip-rule="evenodd" d="M76.0201 25.617V8.72335H71.0213V5.28353H84.4091V8.72335H79.4218V25.617H76.0201Z" fill="#467933"/>
<mask id="mask0_46_38" style="mask-type:alpha" maskUnits="userSpaceOnUse" x="86" y="4" width="16" height="22">
<path fill-rule="evenodd" clip-rule="evenodd" d="M86.2644 4.40305H101.01V25.3934H86.2644V4.40305Z" fill="white"/>
</mask>
<g mask="url(#mask0_46_38)">
<path fill-rule="evenodd" clip-rule="evenodd" d="M97.6964 17.5845L101.01 18.8446C100.502 21.0598 99.6578 22.7052 98.4758 23.7802C97.294 24.856 95.7949 25.3934 93.9781 25.3934C91.7303 25.3934 89.8828 24.4729 88.4355 22.6311C86.9879 20.7896 86.2644 18.2719 86.2644 15.0784C86.2644 11.6997 86.9919 9.07611 88.4469 7.20706C89.9019 5.3376 91.8148 4.40298 94.186 4.40298C96.257 4.40298 97.9387 5.137 99.232 6.6044C100.002 7.47251 100.579 8.71854 100.964 10.3429L97.5807 11.3124C97.3807 10.26 96.9633 9.42906 96.328 8.81989C95.6929 8.21094 94.9208 7.90604 94.0127 7.90604C92.7581 7.90604 91.7398 8.44617 90.9585 9.52621C90.1771 10.6063 89.7864 12.3555 89.7864 14.7735C89.7864 17.3402 90.1715 19.1677 90.941 20.2566C91.7109 21.3458 92.7121 21.8904 93.9436 21.8904C94.8517 21.8904 95.6332 21.5444 96.2874 20.8521C96.9417 20.1598 97.4116 19.0706 97.6964 17.5845Z" fill="#467933"/>
</g>
<path fill-rule="evenodd" clip-rule="evenodd" d="M121.002 25.617V5.28353H126.029L129.046 19.1536L132.03 5.28353H137.068V25.617H133.948V9.61105L130.646 25.617H127.413L124.122 9.61105V25.617H121.002Z" fill="#467933"/>
<path fill-rule="evenodd" clip-rule="evenodd" d="M140.638 25.617V5.28353H146.301C148.446 5.28353 149.845 5.38527 150.497 5.58875C151.498 5.89376 152.337 6.55738 153.012 7.57898C153.688 8.6008 154.026 9.9211 154.026 11.5391C154.026 12.7871 153.831 13.8366 153.441 14.6875C153.052 15.5382 152.558 16.2061 151.957 16.6914C151.357 17.177 150.747 17.4986 150.127 17.6556C149.285 17.8499 148.065 17.9468 146.468 17.9468H144.167V25.617H140.638Z" fill="#467933"/>
<path fill-rule="evenodd" clip-rule="evenodd" d="M144.208 8.49408V13.845H146.147C147.543 13.845 148.477 13.7465 148.948 13.5493C149.418 13.352 149.787 13.0432 150.055 12.6231C150.322 12.2032 150.456 11.7143 150.456 11.1568C150.456 10.4708 150.268 9.90467 149.893 9.45884C149.518 9.01301 149.043 8.73405 148.469 8.62294C148.046 8.53716 147.196 8.49408 145.919 8.49408H144.208Z" fill="#467933"/>
<path fill-rule="evenodd" clip-rule="evenodd" d="M156.703 5.28353H160.093V16.1119C160.093 17.8304 160.135 18.9438 160.219 19.4529C160.364 20.2713 160.71 20.9284 161.255 21.4234C161.801 21.9192 162.548 22.1666 163.495 22.1666C164.456 22.1666 165.182 21.9327 165.671 21.4647C166.159 20.9964 166.453 20.4212 166.552 19.7393C166.652 19.0575 166.701 17.9257 166.701 16.3437V5.28353H170.091V15.7843C170.091 18.1845 169.999 19.8805 169.816 20.8709C169.633 21.8622 169.295 22.6986 168.803 23.3805C168.31 24.0625 167.652 24.6061 166.827 25.0104C166.003 25.4146 164.926 25.617 163.598 25.617C161.994 25.617 160.778 25.3965 159.95 24.9558C159.121 24.5147 158.467 23.942 157.986 23.2374C157.505 22.5329 157.188 21.7942 157.035 21.0212C156.814 19.8758 156.703 18.1845 156.703 15.9482V5.28353Z" fill="#467933"/>
<mask id="mask1_46_38" style="mask-type:alpha" maskUnits="userSpaceOnUse" x="172" y="4" width="15" height="22">
<path fill-rule="evenodd" clip-rule="evenodd" d="M172.83 4.40331H186.594V25.407H172.83V4.40331Z" fill="white"/>
</mask>
<g mask="url(#mask1_46_38)">
<path fill-rule="evenodd" clip-rule="evenodd" d="M172.83 18.4428L176.156 18.0551C176.356 19.3938 176.762 20.3767 177.374 21.0044C177.986 21.6322 178.812 21.9457 179.851 21.9457C180.952 21.9457 181.781 21.6668 182.339 21.1082C182.898 20.5496 183.176 19.8968 183.176 19.1487C183.176 18.6693 183.059 18.2607 182.824 17.9235C182.589 17.5869 182.179 17.2935 181.594 17.0445C181.194 16.8783 180.282 16.583 178.858 16.1583C177.026 15.614 175.74 14.9448 175.001 14.1508C173.962 13.0338 173.442 11.6719 173.442 10.066C173.442 9.03237 173.686 8.06543 174.175 7.16543C174.664 6.26564 175.369 5.58009 176.288 5.10921C177.208 4.63854 178.319 4.40331 179.62 4.40331C181.744 4.40331 183.344 4.96191 184.418 6.07846C185.492 7.19565 186.056 8.68656 186.11 10.5506L182.691 10.7306C182.545 9.6877 182.231 8.93774 181.75 8.48092C181.27 8.02368 180.548 7.79537 179.585 7.79537C178.592 7.79537 177.814 8.03983 177.253 8.52918C176.89 8.8431 176.71 9.2632 176.71 9.78927C176.71 10.2692 176.879 10.6802 177.218 11.0217C177.649 11.4554 178.696 11.9078 180.359 12.3785C182.022 12.8491 183.252 13.3362 184.048 13.8392C184.845 14.3424 185.469 15.0298 185.919 15.9021C186.369 16.7744 186.595 17.8524 186.595 19.1351C186.595 20.298 186.325 21.3875 185.786 22.4027C185.247 23.4183 184.485 24.1729 183.5 24.6667C182.514 25.1602 181.286 25.407 179.816 25.407C177.676 25.407 176.033 24.8144 174.885 23.6282C173.738 22.4422 173.053 20.7133 172.83 18.4428Z" fill="#467933"/>
</g>
<path d="M243.072 5.64921V5.63882H199.089V24.7974H243.072V24.8078H251.078L243.072 15.2285L251.078 5.64921H243.072ZM206.61 21.3376C205.137 21.3376 203.967 20.8078 203.101 19.7272C202.234 18.6571 201.801 17.1818 201.801 15.2908C201.801 14.0856 201.949 13.0778 202.252 12.2571C202.477 11.6544 202.78 11.1142 203.17 10.6363C203.56 10.1583 203.985 9.80509 204.453 9.56612C205.068 9.25443 205.778 9.09859 206.584 9.09859C208.04 9.09859 209.21 9.63885 210.085 10.7298C210.96 11.8103 211.393 13.3168 211.393 15.2389C211.393 17.1506 210.96 18.6467 210.094 19.7272C209.227 20.7974 208.066 21.3376 206.61 21.3376ZM217.363 21.3376C215.89 21.3376 214.721 20.8078 213.854 19.7272C212.979 18.6571 212.546 17.1818 212.546 15.2908C212.546 14.0856 212.702 13.0778 213.005 12.2571C213.222 11.6544 213.533 11.1142 213.923 10.6363C214.313 10.1583 214.738 9.80509 215.197 9.56612C215.821 9.25443 216.532 9.09859 217.337 9.09859C218.793 9.09859 219.954 9.63885 220.829 10.7298C221.704 11.8103 222.146 13.3168 222.146 15.2389C222.146 17.1506 221.713 18.6467 220.847 19.7272C219.971 20.7974 218.81 21.3376 217.363 21.3376ZM229.434 20.922C228.853 21.2026 228.142 21.348 227.285 21.348C226.028 21.348 225.066 21.0052 224.399 20.3091C223.732 19.6233 223.325 18.6155 223.195 17.2857C223.394 17.2649 224.945 17.0883 225.144 17.0675C225.257 17.8467 225.5 18.4181 225.855 18.7818C226.21 19.1454 226.695 19.3324 227.302 19.3324C227.943 19.3324 228.428 19.1662 228.758 18.8441C229.078 18.522 229.243 18.1376 229.243 17.7012C229.243 17.4207 229.174 17.1818 229.035 16.9844C228.905 16.787 228.662 16.6207 228.316 16.4753C228.082 16.3818 227.553 16.2051 226.721 15.9558C225.647 15.6441 224.902 15.2493 224.469 14.7817C223.862 14.1376 223.559 13.3376 223.559 12.4025C223.559 11.7999 223.697 11.2389 223.983 10.709C224.269 10.1895 224.685 9.78431 225.222 9.51418C225.76 9.24404 226.409 9.09859 227.163 9.09859C228.411 9.09859 229.338 9.43106 229.971 10.0752C230.595 10.7298 230.924 11.6025 230.959 12.683C230.759 12.6934 229.156 12.7869 228.957 12.7973C228.879 12.1843 228.688 11.748 228.411 11.4778C228.134 11.2181 227.709 11.083 227.146 11.083C226.565 11.083 226.106 11.2285 225.786 11.509C225.569 11.696 225.465 11.935 225.465 12.2467C225.465 12.5272 225.56 12.7661 225.76 12.9635C226.011 13.2129 226.626 13.483 227.597 13.7532C228.567 14.0233 229.286 14.3142 229.754 14.6051C230.222 14.896 230.586 15.3012 230.846 15.8103C231.106 16.3194 231.244 16.9428 231.244 17.6909C231.244 18.3662 231.08 19.0103 230.768 19.6026C230.456 20.1948 230.005 20.6311 229.434 20.922ZM237.145 11.3116V21.1402H235.152V11.3116H232.215V9.30638H240.074V11.3116H237.145Z" fill="#709800"/>
<path d="M243.072 5.64921V5.63882H199.089V24.7974H243.072V24.8078H251.078L243.072 15.2285L251.078 5.64921H243.072ZM206.61 21.3376C205.137 21.3376 203.967 20.8078 203.101 19.7272C202.234 18.6571 201.801 17.1818 201.801 15.2908C201.801 14.0856 201.949 13.0778 202.252 12.2571C202.477 11.6544 202.78 11.1142 203.17 10.6363C203.56 10.1583 203.985 9.80509 204.453 9.56612C205.068 9.25443 205.778 9.09859 206.584 9.09859C208.04 9.09859 209.21 9.63885 210.085 10.7298C210.96 11.8103 211.393 13.3168 211.393 15.2389C211.393 17.1506 210.96 18.6467 210.094 19.7272C209.227 20.7974 208.066 21.3376 206.61 21.3376ZM217.363 21.3376C215.89 21.3376 214.721 20.8078 213.854 19.7272C212.979 18.6571 212.546 17.1818 212.546 15.2908C212.546 14.0856 212.702 13.0778 213.005 12.2571C213.222 11.6544 213.533 11.1142 213.923 10.6363C214.313 10.1583 214.738 9.80509 215.197 9.56612C215.821 9.25443 216.532 9.09859 217.337 9.09859C218.793 9.09859 219.954 9.63885 220.829 10.7298C221.704 11.8103 222.146 13.3168 222.146 15.2389C222.146 17.1506 221.713 18.6467 220.847 19.7272C219.971 20.7974 218.81 21.3376 217.363 21.3376ZM229.434 20.922C228.853 21.2026 228.142 21.348 227.285 21.348C226.028 21.348 225.066 21.0052 224.399 20.3091C223.732 19.6233 223.325 18.6155 223.195 17.2857C223.394 17.2649 224.945 17.0883 225.144 17.0675C225.257 17.8467 225.5 18.4181 225.855 18.7818C226.21 19.1454 226.695 19.3324 227.302 19.3324C227.943 19.3324 228.428 19.1662 228.758 18.8441C229.078 18.522 229.243 18.1376 229.243 17.7012C229.243 17.4207 229.174 17.1818 229.035 16.9844C228.905 16.787 228.662 16.6207 228.316 16.4753C228.082 16.3818 227.553 16.2051 226.721 15.9558C225.647 15.6441 224.902 15.2493 224.469 14.7817C223.862 14.1376 223.559 13.3376 223.559 12.4025C223.559 11.7999 223.697 11.2389 223.983 10.709C224.269 10.1895 224.685 9.78431 225.222 9.51418C225.76 9.24404 226.409 9.09859 227.163 9.09859C228.411 9.09859 229.338 9.43106 229.971 10.0752C230.595 10.7298 230.924 11.6025 230.959 12.683C230.759 12.6934 229.156 12.7869 228.957 12.7973C228.879 12.1843 228.688 11.748 228.411 11.4778C228.134 11.2181 227.709 11.083 227.146 11.083C226.565 11.083 226.106 11.2285 225.786 11.509C225.569 11.696 225.465 11.935 225.465 12.2467C225.465 12.5272 225.56 12.7661 225.76 12.9635C226.011 13.2129 226.626 13.483 227.597 13.7532C228.567 14.0233 229.286 14.3142 229.754 14.6051C230.222 14.896 230.586 15.3012 230.846 15.8103C231.106 16.3194 231.244 16.9428 231.244 17.6909C231.244 18.3662 231.08 19.0103 230.768 19.6026C230.456 20.1948 230.005 20.6311 229.434 20.922ZM237.145 11.3116V21.1402H235.152V11.3116H232.215V9.30638H240.074V11.3116H237.145Z" fill="#709800"/>
<rect x="0.5" y="0.5" width="264" height="30" rx="4.5" stroke="#467933"/>
</svg>
